<?xml version="1.0" encoding="UTF-8"?>
<svg width="884px" height="1279px" viewBox="0 0 884 1279" version="1.1" xmlns="http://www.w3.org/2000/svg" xmlns:xlink="http://www.w3.org/1999/xlink">
    <title>coffe-only-logo</title>
    <g id="Page-1" stroke="none" stroke-width="1" fill="none" fill-rule="evenodd">
        <g id="coffe-only-logo" transform="translate(0, 0)" fill-rule="nonzero">
            <path d="M791.108999,297.518 L790.230999,297.002 L788.200999,296.383 C789.017999,297.072 790.039999,297.472 791.108999,297.518 L791.108999,297.518 Z" id="Path" fill="#0D0C22"></path>
            <path d="M803.895999,388.891 L802.915999,389.166 L803.895999,388.891 Z" id="Path" fill="#0D0C22"></path>
            <path d="M791.483999,297.377 C791.358999,297.361 791.236999,297.332 791.117999,297.29 C791.110999,297.371 791.110999,297.453 791.117999,297.534 C791.251999,297.516 791.378999,297.462 791.483999,297.377 L791.483999,297.377 Z" id="Path" fill="#0D0C22"></path>
            <polygon id="Path" fill="#0D0C22" points="791.112999 297.529 791.243999 297.529 791.243999 297.447"></polygon>
            <path d="M803.110999,388.726 L804.590999,387.883 L805.141999,387.573 L805.640999,387.04 C804.701999,387.444 803.845999,388.016 803.110999,388.726 L803.110999,388.726 Z" id="Path" fill="#0D0C22"></path>
            <path d="M793.668999,299.515 L792.222999,298.138 L791.242999,297.605 C791.769999,298.535 792.640999,299.221 793.668999,299.515 L793.668999,299.515 Z" id="Path" fill="#0D0C22"></path>
            <path d="M430.018999,1186.18 C428.863999,1186.68 427.851999,1187.46 427.075999,1188.45 L427.987999,1187.87 C428.607999,1187.3 429.484999,1186.63 430.018999,1186.18 Z" id="Path" fill="#0D0C22"></path>
            <path d="M641.186999,1144.63 C641.186999,1143.33 640.550999,1143.57 640.704999,1148.21 C640.704999,1147.84 640.859999,1147.46 640.928999,1147.1 C641.014999,1146.27 641.083999,1145.46 641.186999,1144.63 Z" id="Path" fill="#0D0C22"></path>
            <path d="M619.283999,1186.18 C618.128999,1186.68 617.117999,1187.46 616.341999,1188.45 L617.253999,1187.87 C617.872999,1187.3 618.750999,1186.63 619.283999,1186.18 Z" id="Path" fill="#0D0C22"></path>
            <path d="M281.303999,1196.06 C280.426999,1195.3 279.353999,1194.8 278.206999,1194.61 C279.135999,1195.06 280.064999,1195.51 280.683999,1195.85 L281.303999,1196.06 Z" id="Path" fill="#0D0C22"></path>
            <path d="M247.840999,1164.01 C247.703999,1162.66 247.287999,1161.35 246.618999,1160.16 C247.092999,1161.39 247.488999,1162.66 247.805999,1163.94 L247.840999,1164.01 Z" id="Path" fill="#0D0C22"></path>
            <path d="M472.622999,590.836 C426.681999,610.503 374.545999,632.802 306.975999,632.802 C278.709999,632.746 250.579999,628.868 223.352999,621.274 L270.085999,1101.08 C271.739999,1121.13 280.875999,1139.83 295.678999,1153.46 C310.481999,1167.09 329.869999,1174.65 349.991999,1174.65 C349.991999,1174.65 416.253999,1178.09 438.364999,1178.09 C462.160999,1178.09 533.515999,1174.65 533.515999,1174.65 C553.635999,1174.65 573.018999,1167.08 587.818999,1153.45 C602.618999,1139.82 611.751999,1121.13 613.405999,1101.08 L663.458999,570.876 C641.090999,563.237 618.515999,558.160986 593.067999,558.160986 C549.053999,558.144 513.590999,573.303 472.622999,590.836 Z" id="Path" fill="#FFDD00"></path>
            <path d="M78.6884989,386.132 L79.4798989,386.872 L79.9961989,387.182 C79.5986989,386.787 79.1602989,386.435 78.6884989,386.132 L78.6884989,386.132 Z" id="Path" fill="#0D0C22"></path>
            <path d="M879.566999,341.849 L872.529999,306.352 C866.214999,274.503 851.881999,244.409 819.189999,232.898 C808.710999,229.215 796.820999,227.633 788.785999,220.01 C780.750999,212.388 778.375999,200.55 776.517999,189.572 C773.075999,169.423 769.841999,149.257 766.313999,129.143 C763.268999,111.85 760.859999,92.4243004 752.927999,76.5600004 C742.603999,55.2584004 721.181999,42.8009004 699.879999,34.5590004 C688.964999,30.4844004 677.825999,27.0375004 666.516999,24.2352004 C613.296999,10.1947004 557.341999,5.0327704 502.590999,2.0904704 C436.874999,-1.5357696 370.982999,-0.443233598 305.421999,5.3596804 C256.624999,9.7989404 205.228999,15.1674004 158.857999,32.0469004 C141.909999,38.2240004 124.444999,45.6399004 111.557999,58.7341004 C95.7447989,74.8221004 90.5828989,99.7026004 102.127999,119.765 C110.335999,134.012 124.238999,144.078 138.984999,150.737 C158.191999,159.317 178.250999,165.846 198.828999,170.215 C256.125999,182.879 315.470999,187.851 374.006999,189.968 C438.886999,192.586 503.869999,190.464 568.439999,183.618 C584.407999,181.863 600.346999,179.758 616.256999,177.304 C634.994999,174.43 647.021999,149.928 641.498999,132.859 C634.890999,112.453 617.133999,104.538 597.054999,107.618 C594.094999,108.082 591.152999,108.512 588.192999,108.942 L586.059999,109.252 C579.256999,110.113 572.454999,110.915 565.652999,111.661 C551.600999,113.175 537.514999,114.414 523.393999,115.378 C491.767999,117.58 460.056999,118.595 428.362999,118.647 C397.218999,118.647 366.057999,117.769 334.982999,115.722 C320.804999,114.793 306.660999,113.611 292.551999,112.177 C286.133999,111.506 279.732999,110.801 273.332999,110.009 L267.240999,109.235 L265.916999,109.046 L259.601999,108.134 C246.696999,106.189 233.791999,103.953 221.024999,101.251 C219.736999,100.965 218.583999,100.249 217.757999,99.2193004 C216.931999,98.1901004 216.481999,96.9099004 216.481999,95.5903004 C216.481999,94.2706004 216.931999,92.9904004 217.757999,91.9612004 C218.583999,90.9319004 219.736999,90.2152004 221.024999,89.9293004 L221.265999,89.9293004 C232.329999,87.5721004 243.478999,85.5589004 254.662999,83.8038004 C258.391999,83.2188004 262.130999,82.6453004 265.881999,82.0832004 L265.984999,82.0832004 C272.987999,81.6186004 280.025999,80.3625004 286.993999,79.5366004 C347.623999,73.2302004 408.613999,71.0801004 469.537999,73.1014004 C499.114999,73.9618004 528.675999,75.6996004 558.115999,78.6935004 C564.447999,79.3474004 570.745999,80.0357004 577.042999,80.8099004 C579.451999,81.1025004 581.877999,81.4465004 584.304999,81.7391004 L589.190999,82.4445004 C603.437999,84.5667004 617.609999,87.1419004 631.707999,90.1703004 C652.596999,94.7128004 679.421999,96.1925004 688.712999,119.077 C691.672999,126.338 693.014999,134.408 694.648999,142.03 L696.730999,151.752 C696.785999,151.926 696.825999,152.105 696.851999,152.285 C701.772999,175.227 706.699999,198.169 711.631999,221.111 C711.993999,222.806 712.001999,224.557 711.656999,226.255 C711.311999,227.954 710.620999,229.562 709.625999,230.982 C708.631999,232.401 707.354999,233.6 705.876999,234.504 C704.397999,235.408 702.749999,235.997 701.032999,236.236 L700.894999,236.236 L697.883999,236.649 L694.907999,237.044 C685.477999,238.272 676.037999,239.419 666.585999,240.486 C647.967999,242.608 629.321999,244.443 610.647999,245.992 C573.538999,249.077 536.355999,251.102 499.097999,252.066 C480.113999,252.57 461.134999,252.806 442.161999,252.771 C366.642999,252.712 291.188999,248.322 216.172999,239.625 C208.050999,238.662 199.929999,237.629 191.807999,236.58 C198.105999,237.389 187.230999,235.96 185.028999,235.651 C179.866999,234.928 174.704999,234.177 169.542999,233.397 C152.215999,230.798 134.992999,227.598 117.699999,224.793 C96.7943989,221.352 76.8004989,223.073 57.8905989,233.397 C42.3684989,241.891 29.8054989,254.916 21.8775989,270.735 C13.7216989,287.597 11.2955989,305.956 7.64785894,324.075 C4.00008894,342.193 -1.67805106,361.688 0.472749939,380.288 C5.10127894,420.431 33.1649989,453.054 73.5312989,460.35 C111.505999,467.232 149.686999,472.807 187.970999,477.556 C338.360999,495.975 490.293999,498.178 641.154999,484.129 C653.439999,482.982 665.707999,481.732 677.958999,480.378 C681.785999,479.958 685.657999,480.398 689.291999,481.668 C692.925999,482.938 696.229999,485.005 698.961999,487.717 C701.693999,490.429 703.783999,493.718 705.079999,497.342 C706.376999,500.967 706.845999,504.836 706.452999,508.665 L702.632999,545.797 C694.935999,620.828 687.238999,695.854 679.541999,770.874 C671.512999,849.657 663.430999,928.434 655.297999,1007.2 C653.003999,1029.39 650.709999,1051.57 648.415999,1073.74 C646.212999,1095.58 645.903999,1118.1 641.756999,1139.68 C635.217999,1173.61 612.247999,1194.45 578.729999,1202.07 C548.021999,1209.06 516.651999,1212.73 485.160999,1213.01 C450.248999,1213.2 415.354999,1211.65 380.442999,1211.84 C343.172999,1212.05 297.524999,1208.61 268.755999,1180.87 C243.478999,1156.51 239.985999,1118.36 236.544999,1085.37 C231.956999,1041.7 227.408999,998.039 222.899999,954.381 L197.606999,711.615 L181.243999,554.538 C180.967999,551.94 180.692999,549.376 180.434999,546.76 C178.472999,528.023 165.206999,509.681 144.300999,510.627 C126.406999,511.418 106.068999,526.629 108.167999,546.76 L120.297999,663.214 L145.384999,904.104 C152.531999,972.528 159.660999,1040.96 166.772999,1109.41 C168.149999,1122.52 169.439999,1135.67 170.884999,1148.78 C178.748999,1220.43 233.464999,1259.04 301.223999,1269.91 C340.798999,1276.28 381.336999,1277.59 421.496999,1278.24 C472.978999,1279.07 524.976999,1281.05 575.614999,1271.72 C650.652999,1257.95 706.951999,1207.85 714.986999,1130.13 C717.281999,1107.69 719.575999,1085.25 721.869999,1062.8 C729.497999,988.559 737.114999,914.313 744.719999,840.061 L769.600999,597.451 L781.008999,486.263 C781.576999,480.749 783.904999,475.565 787.648999,471.478 C791.391999,467.391 796.351999,464.617 801.793999,463.567 C823.249999,459.386 843.760999,452.245 859.022999,435.916 C883.317999,409.918 888.152999,376.021 879.566999,341.849 Z M72.4300989,365.835 C72.7569989,365.68 72.1547989,368.484 71.8966989,369.792 C71.8450989,367.813 71.9482989,366.058 72.4300989,365.835 Z M74.5120989,381.94 C74.6841989,381.819 75.2002989,382.508 75.7336989,383.334 C74.9249989,382.576 74.4088989,382.009 74.4948989,381.94 L74.5120989,381.94 Z M76.5596989,384.641 C77.2995989,385.897 77.6952989,386.689 76.5596989,384.641 L76.5596989,384.641 Z M80.6719989,387.979 L80.7751989,387.979 C80.7751989,388.1 80.9644989,388.22 81.0332989,388.341 C80.9191989,388.208 80.7924989,388.087 80.6547989,387.979 L80.6719989,387.979 Z M800.795999,382.989 C793.087999,390.319 781.472999,393.726 769.995999,395.43 C641.291999,414.529 510.712999,424.199 380.596999,419.932 C287.475999,416.749 195.335999,406.407 103.143999,393.382 C94.1101989,392.109 84.3196989,390.457 78.1081989,383.798 C66.4077989,371.237 72.1547989,345.944 75.2002989,330.768 C77.9877989,316.865 83.3217989,298.334 99.8571989,296.355 C125.666999,293.327 155.639999,304.218 181.174999,308.09 C211.916999,312.781 242.773999,316.538 273.744999,319.36 C405.924999,331.405 540.324999,329.529 671.919999,311.91 C695.904999,308.686 719.804999,304.941 743.618999,300.674 C764.834999,296.871 788.355999,289.731 801.174999,311.703 C809.966999,326.673 811.136999,346.701 809.777999,363.615 C809.358999,370.984 806.138999,377.915 800.778999,382.989 L800.795999,382.989 Z" id="Shape" fill="#F2F3DD"></path>
        </g>
    </g>
</svg>